<svg xmlns="http://www.w3.org/2000/svg" width="752pt" height="752pt" version="1.1" viewBox="0 0 752 752">
<defs xmlns="http://www.w3.org/2000/svg">
  <clipPath id="a">
   <path d="m139.21 166h473.58v420h-473.58z"/>
  </clipPath>
 </defs>
 
 <path d="m535.79 215.45c-10.516-10.422-41.367-16.023-74.035-21.957-18.539-3.3672-37.703-6.8516-51.945-11.121-29.383-8.8125-78.543 11.922-114.45 27.062-12.992 5.4766-24.203 10.203-31.332 12.164-32.281 8.8633-50.887 26.695-82.957 79.488-11.445 18.84-37.258 96.211-21.402 133.58l1.1719 2.7773c8.668 20.602 31.684 75.336 70.277 96.008 31.961 17.117 132.49 38.27 166.24 38.27 2.8711 0.097656 5.7422-0.17188 8.5469-0.80078 83.078-23.734 118.72-39.906 153.26-83.406 17.078-21.5 40.219-124.65 38.062-157.88-1.3242-20.227-40.945-93.855-61.445-114.18zm16.551 266.63c-33.32 41.957-66.379 56.883-148.83 80.438-15.754 4.5078-132.04-17.363-168.27-36.77-35.871-19.211-58.02-71.875-66.359-91.695l-1.1836-2.8047c-14.48-34.113 10.305-108.31 20.824-125.63 30.672-50.492 48.125-67.453 77.809-75.605 7.6836-2.1094 19.141-6.9375 32.41-12.539 34.691-14.621 82.227-34.645 108.54-26.746 14.715 4.4141 34.121 7.9414 52.895 11.348 28.531 5.1836 60.863 11.055 69.449 19.57 20.051 19.871 57.797 91.922 58.883 108.55 1.9844 30.457-20.766 132.48-36.176 151.89z"/>
 <path d="m304.55 342.06c-15.605 0-30.574 6.1992-41.613 17.234-11.035 11.039-17.234 26.008-17.234 41.613 0 15.609 6.1992 30.578 17.234 41.613 11.039 11.039 26.008 17.238 41.613 17.238 15.609 0 30.578-6.1992 41.613-17.238 11.039-11.035 17.238-26.004 17.238-41.613-0.019531-15.602-6.2227-30.559-17.258-41.594-11.031-11.031-25.988-17.238-41.594-17.254zm0 108.97v-0.003906c-13.293 0-26.039-5.2812-35.441-14.68-9.3984-9.3984-14.68-22.148-14.68-35.441 0-13.293 5.2812-26.039 14.68-35.441 9.4023-9.3984 22.148-14.68 35.441-14.68 13.293 0 26.043 5.2812 35.441 14.68 9.3984 9.4023 14.68 22.148 14.68 35.441-0.015625 13.289-5.3008 26.027-14.695 35.426-9.3984 9.3945-22.137 14.68-35.426 14.695z"/>
 <g clip-path="url(#a)">
  <path d="m612.65 326.36c-1.4102-21.629-43.797-100.37-65.723-122.1-11.195-11.094-44.199-17.086-79.141-23.434-19.863-3.6094-40.402-7.3398-55.672-11.922-31.359-9.3906-83.965 12.781-122.38 28.98-13.918 5.8672-25.938 10.938-33.59 13.039-34.48 9.4648-54.371 28.531-88.676 85.004-12.242 20.145-39.852 102.86-22.902 142.79l1.2578 2.9766c9.2695 22.043 33.891 80.59 75.137 102.68 34.195 18.316 141.76 40.969 177.85 40.969 3.0703 0.10547 6.1367-0.18359 9.1328-0.85938 88.914-25.402 127.06-42.699 164-89.23 17.785-22.383 42.957-134.27 40.707-168.9zm-47.535 163.47c-35.742 45.008-71.188 61.016-159.57 86.262-16.938 4.8281-141.64-18.609-180.46-39.406-38.527-20.633-62.277-77.109-71.219-98.375l-1.2656-3c-15.547-36.633 11.031-116.26 22.324-134.84 32.91-54.172 51.648-72.371 83.527-81.121 8.207-2.2539 20.473-7.4258 34.672-13.414 31.383-13.234 72.543-30.59 101.67-30.59 5.0039-0.078126 9.9922 0.57031 14.812 1.9219 15.742 4.7227 36.527 8.5 56.629 12.152 32.094 5.832 65.277 11.859 74.547 21.047 21.504 21.309 62 98.617 63.164 116.47 2.1172 32.652-22.289 142.08-38.828 162.9z"/>
 </g>
 <path d="m250.07 311.64c0 2.3906 1.4375 4.5469 3.6484 5.4609 2.2109 0.91406 4.7539 0.41016 6.4453-1.2812 1.6875-1.6914 2.1953-4.2344 1.2812-6.4414-0.91797-2.2109-3.0742-3.6523-5.4648-3.6523-1.5664 0-3.0703 0.625-4.1797 1.7344-1.1094 1.1055-1.7305 2.6094-1.7305 4.1797z"/>
 <path d="m467.19 498.26c-2.3906 0-4.5469 1.4414-5.4609 3.6484-0.91406 2.2109-0.41016 4.7539 1.2812 6.4453 1.6914 1.6914 4.2344 2.1953 6.4453 1.2812 2.207-0.91406 3.6484-3.0703 3.6484-5.4648 0-1.5664-0.62109-3.0703-1.7305-4.1797-1.1094-1.1094-2.6133-1.7305-4.1836-1.7305z"/>
 <path d="m550.21 296.94c-2.3906 0-4.5469 1.4375-5.4609 3.6484-0.91406 2.2109-0.41016 4.7539 1.2812 6.4453 1.6914 1.6875 4.2344 2.1953 6.4453 1.2812 2.207-0.91797 3.6484-3.0742 3.6484-5.4648 0-1.5664-0.62109-3.0703-1.7305-4.1797s-2.6133-1.7305-4.1836-1.7305z"/>
 <path d="m487.98 400.91c-2.3906 0-4.5469 1.4414-5.4609 3.6523-0.91406 2.207-0.41016 4.75 1.2812 6.4414 1.6914 1.6914 4.2344 2.1953 6.4414 1.2812 2.2109-0.91406 3.6523-3.0703 3.6523-5.4609 0-1.5703-0.625-3.0742-1.7344-4.1797-1.1055-1.1094-2.6094-1.7344-4.1797-1.7344z"/>
 <path d="m529.16 443.57c-2.3906 0-4.5469 1.4414-5.4648 3.6523-0.91406 2.207-0.40625 4.75 1.2812 6.4414 1.6914 1.6914 4.2344 2.1992 6.4453 1.2812 2.2109-0.91406 3.6484-3.0703 3.6484-5.4609 0-3.2656-2.6445-5.9141-5.9102-5.9141z"/>
 <path d="m538.39 364.2c-2.3906 0-4.5469 1.4414-5.4609 3.6484-0.91406 2.2109-0.41016 4.7539 1.2812 6.4453 1.6914 1.6914 4.2344 2.1953 6.4414 1.2812 2.2109-0.91406 3.6523-3.0703 3.6523-5.4609 0-3.2656-2.6484-5.9141-5.9141-5.9141z"/>
 <path d="m443.79 207.6c-2.3906 0-4.5469 1.4414-5.4648 3.6523-0.91406 2.207-0.40625 4.75 1.2852 6.4414 1.6875 1.6914 4.2344 2.1953 6.4414 1.2812 2.2109-0.91406 3.6523-3.0703 3.6484-5.4609 0-1.5703-0.62109-3.0742-1.7305-4.1836-1.1094-1.1055-2.6133-1.7305-4.1797-1.7305z"/>
 <path d="m484.03 299.82c0-2.3945-1.4414-4.5508-3.6484-5.4648-2.2109-0.91406-4.7539-0.41016-6.4453 1.2812-1.6914 1.6914-2.1953 4.2344-1.2812 6.4453 0.91406 2.207 3.0703 3.6484 5.4648 3.6484 3.2656 0 5.9102-2.6445 5.9102-5.9102z"/>
 <path d="m425.25 350.49c-2.3906 0-4.5469 1.4414-5.4609 3.6523-0.91797 2.207-0.41016 4.75 1.2812 6.4414 1.6914 1.6914 4.2344 2.1992 6.4414 1.2812 2.2109-0.91406 3.6523-3.0703 3.6523-5.4609 0-1.5703-0.625-3.0742-1.7344-4.1797-1.1055-1.1094-2.6094-1.7344-4.1797-1.7344z"/>
 <path d="m407.52 277.97c-2.3906 0-4.5469 1.4414-5.4609 3.6523-0.91406 2.207-0.41016 4.75 1.2812 6.4414 1.6914 1.6914 4.2344 2.1953 6.4453 1.2812 2.207-0.91406 3.6484-3.0703 3.6484-5.4609 0-1.5703-0.625-3.0742-1.7305-4.1836-1.1094-1.1055-2.6133-1.7305-4.1836-1.7305z"/>
 <path d="m332.45 236.91c2.3906 0 4.5469-1.4414 5.4609-3.6523 0.91797-2.207 0.41016-4.75-1.2812-6.4414s-4.2344-2.1953-6.4414-1.2812c-2.2109 0.91406-3.6523 3.0703-3.6523 5.4609 0 1.5703 0.625 3.0742 1.7344 4.1797 1.1055 1.1094 2.6094 1.7344 4.1797 1.7344z"/>
 <path d="m344.27 308.76c2.3906 0 4.5469-1.4414 5.4648-3.6523 0.91406-2.207 0.40625-4.75-1.2852-6.4414-1.6875-1.6914-4.2344-2.1953-6.4414-1.2812-2.2109 0.91406-3.6484 3.0703-3.6484 5.4609 0 3.2656 2.6445 5.9141 5.9102 5.9141z"/>
 <path d="m202.41 356.41c-2.3906 0-4.5469 1.4414-5.4609 3.6484-0.91797 2.2109-0.41016 4.7539 1.2812 6.4453s4.2344 2.1953 6.4414 1.2812c2.2109-0.91406 3.6523-3.0703 3.6523-5.4648 0-3.2617-2.6484-5.9102-5.9141-5.9102z"/>
 <path d="m395.69 492.35c-2.3906 0-4.5469 1.4414-5.4609 3.6523-0.91406 2.207-0.41016 4.75 1.2812 6.4414 1.6914 1.6914 4.2344 2.1953 6.4414 1.2812 2.2109-0.91406 3.6523-3.0703 3.6523-5.4609 0-1.5703-0.625-3.0742-1.7344-4.1797-1.1055-1.1094-2.6094-1.7344-4.1797-1.7344z"/>
 <path d="m401.61 425.76c-2.3906 0-4.5469 1.4414-5.4648 3.6523-0.91406 2.207-0.40625 4.75 1.2812 6.4414 1.6914 1.6914 4.2344 2.1953 6.4453 1.2812 2.2109-0.91406 3.6484-3.0703 3.6484-5.4609 0-3.2656-2.6445-5.9141-5.9102-5.9141z"/>
 <path d="m359.04 540.15c-2.3906 0-4.5469 1.4414-5.4609 3.6484-0.91406 2.2109-0.41016 4.7539 1.2812 6.4453 1.6914 1.6914 4.2344 2.1953 6.4414 1.2812 2.2109-0.91797 3.6523-3.0703 3.6523-5.4648 0-1.5664-0.625-3.0703-1.7344-4.1797-1.1055-1.1094-2.6094-1.7305-4.1797-1.7305z"/>
 <path d="m308.49 483.51c-2.3906 0-4.5469 1.4414-5.4609 3.6523-0.91406 2.207-0.41016 4.75 1.2812 6.4414 1.6914 1.6914 4.2344 2.1992 6.4414 1.2812 2.2109-0.91406 3.6523-3.0703 3.6523-5.4609 0-1.5703-0.625-3.0742-1.7305-4.1797-1.1094-1.1094-2.6133-1.7344-4.1836-1.7344z"/>
 <path d="m231.55 489.42c-2.3945 0-4.5508 1.4414-5.4648 3.6484-0.91406 2.2109-0.41016 4.7539 1.2812 6.4453 1.6914 1.6914 4.2344 2.1953 6.4453 1.2812 2.207-0.91406 3.6484-3.0703 3.6484-5.4609 0-3.2656-2.6484-5.9141-5.9102-5.9141z"/>
 <path d="m250.07 273.08c2.3906 0 4.5469-1.4414 5.4609-3.6484 0.91406-2.2109 0.41016-4.7539-1.2812-6.4453s-4.2344-2.1953-6.4453-1.2812c-2.207 0.91406-3.6484 3.0703-3.6484 5.4609 0 1.5703 0.62109 3.0742 1.7305 4.1836s2.6133 1.7305 4.1836 1.7305z"/>
 <path d="m231.55 449.48c0-2.3906-1.4414-4.5469-3.6523-5.4609-2.207-0.91797-4.75-0.41016-6.4414 1.2812-1.6914 1.6914-2.1992 4.2344-1.2812 6.4414 0.91406 2.2109 3.0703 3.6523 5.4609 3.6523 1.5664 0 3.0703-0.625 4.1797-1.7344 1.1094-1.1094 1.7344-2.6133 1.7344-4.1797z"/>
</svg>